<svg xmlns:xlink="http://www.w3.org/1999/xlink" width="40" height="40"><title>Tôi Thắc Mắc - Bạn thắc mắc? Chúng ta cùng nhau trả lời.</title><defs><linearGradient x1="50%" y1="0%" x2="50%" y2="100%" id="b"><stop stop-color="#FFF" stop-opacity="0.5" offset="0%"></stop><stop stop-opacity="0.5" offset="100%"></stop></linearGradient><path d="M15.817.416c1.11-.544 2.22-.544 3.33 0l13.32 7.342c1.387.544 2.22 1.631 2.497 3.263v17.946c-.278 1.632-1.11 2.72-2.498 3.263l-13.32 7.342c-1.11.544-2.22.544-3.33 0L2.498 32.23C1.11 31.686.277 30.599 0 28.967V11.021C.277 9.389 1.11 8.3 2.497 7.758L15.817.416" id="a"></path></defs><g fill-rule="nonzero" fill="none"><g transform="translate(3)"><use fill="#1CA1F2" xlink:href="#a"></use><use fill="url(#b)" xlink:href="#a"></use></g><path d="M20.504 6.942c-3.776 0-6.222 1.664-8.143 4.632-.348.538-.24 1.277.245 1.673l2.041 1.664c.491.4 1.19.307 1.574-.21 1.185-1.598 2.064-2.517 3.915-2.517 1.455 0 3.256 1.007 3.256 2.526 0 1.147-.881 1.737-2.318 2.603-1.676 1.01-3.894 2.268-3.894 5.415v.498c0 .674.508 1.221 1.136 1.221h3.428c.627 0 1.136-.547 1.136-1.221v-.294c0-2.181 5.926-2.272 5.926-8.174 0-4.444-4.286-7.816-8.302-7.816zm-.474 19.004c-1.807 0-3.277 1.582-3.277 3.525 0 1.944 1.47 3.525 3.277 3.525 1.807 0 3.277-1.581 3.277-3.525s-1.47-3.525-3.277-3.525z" fill="#FFF"></path></g></svg>